<?xml version="1.0" encoding="utf-8"?>
<!-- Generator: Adobe Illustrator 25.2.1, SVG Export Plug-In . SVG Version: 6.00 Build 0)  -->
<svg version="1.1" id="Livello_1" xmlns="http://www.w3.org/2000/svg" xmlns:xlink="http://www.w3.org/1999/xlink" x="0px" y="0px"
	 viewBox="0 0 512 512" style="enable-background:new 0 0 512 512;" xml:space="preserve">
<style type="text/css">
	.st0{fill:#1D1D1B;}
</style>
<g>
	<polygon class="st0" points="126.6,289.4 125.6,289.4 87.7,190 47.9,190 47.9,322 72.9,322 72.9,265.3 72.3,216.8 73.8,216.8 
		114.5,322 137.7,322 178.2,216.8 179.7,216.8 179.3,265.1 179.3,322 204.5,322 204.5,190 164.3,190 	"/>
	<polygon class="st0" points="253.2,190 226.6,190 226.6,322 322.2,322 322.2,299.9 253.2,299.9 	"/>
	<path class="st0" d="M429.9,290.1c-3.9,3.9-8.7,6.8-14.5,8.9c-5.8,2.1-12.3,3.1-19.6,3.1c-7.1,0-13.5-1-19.3-3
		c-5.7-2-10.6-5-14.6-9c-4-4-7.1-8.8-9.3-14.5c-2.2-5.7-3.4-12.2-3.4-19.7c0-9.9,1.9-18.3,5.7-25.2c3.8-6.9,9.2-12.1,16.2-15.7
		c7-3.6,15.2-5.3,24.6-5.3c7.1,0,13.5,1,19.3,3.1c5.7,2.1,10.5,5,14.4,8.7s6.4,8.3,7.6,13.6h27c-1.4-9.4-5.1-17.6-11-24.5
		c-5.9-6.9-13.7-12.4-23.4-16.3c-9.7-3.9-20.9-5.9-33.9-5.9c-11.3,0-21.6,1.6-30.7,4.8c-9.1,3.2-16.8,7.8-23.2,13.8
		c-6.3,6-11.2,13.1-14.6,21.4c-3.4,8.3-5.1,17.5-5.1,27.6c0,10.3,1.7,19.5,5.1,27.8c3.4,8.3,8.2,15.4,14.6,21.4
		c6.3,6,14.1,10.6,23.2,13.8c9.1,3.2,19.3,4.8,30.7,4.8c12.3,0,23.4-1.9,33.1-5.8c9.8-3.9,17.8-9.3,24-16.3
		c6.2-7,9.9-15.3,11.1-24.8h-26.8C436.2,281.8,433.8,286.3,429.9,290.1z"/>
</g>
</svg>
